# Blender3D v247 OBJ File: bush.blend
# www.blender3d.org
o Plane.002_Plane.003
v 1.001207 -1.169445 -0.218503
v 1.001207 0.830527 0.360935
v -0.998794 0.830527 -0.604382
v -0.998793 -1.169445 0.581146
v 0.001207 0.830527 -0.121723
v 1.001207 -0.169459 0.071216
v 0.001207 -1.169445 0.181322
v -0.998793 -0.169459 -0.011618
v 0.001207 -0.169459 0.029799
vt 0.953051 0.444463
vt 0.953051 0.888927
vt 0.476525 0.944463
vt 0.524568 0.488983
vt 0.953051 0.000000
vt 0.525685 0.044389
vt 0.000000 1.000000
vt 0.049160 0.544389
vt 0.098320 0.088778
vn -0.174627 -0.141118 -0.974456
vn -0.165624 -0.343944 -0.924253
vn 0.037172 -0.348521 -0.936552
vn 0.038301 -0.140080 -0.989380
vn -0.175970 0.067843 -0.982025
vn 0.039369 0.068880 -0.996826
vn 0.238472 -0.338694 -0.910154
vn 0.251015 -0.138951 -0.957945
vn 0.252907 0.066683 -0.965178
usemtl Leaves
s 1
f 7/1/1 4/2/2 8/3/3 9/4/4
f 1/5/5 7/1/1 9/4/4 6/6/6
f 9/4/4 8/3/3 3/7/7 5/8/8
f 6/6/6 9/4/4 5/8/8 2/9/9
o Plane.001_Plane.002
v 0.507666 0.695989 -0.968796
v 0.334401 0.836775 0.990498
v 0.382271 -1.160820 1.001951
v -0.391417 -1.175692 -0.996768
v -0.033806 -0.162023 0.996224
v 0.049896 0.829339 -0.008861
v 0.036219 -0.176895 -1.002494
v -0.047483 -1.168256 0.002591
v 0.001207 -0.169459 -0.003135
vt 0.506936 0.976587
vt 0.000000 0.998029
vt 0.043209 0.506356
vt 0.514850 0.504952
vt 0.965463 0.979662
vt 0.985952 0.484924
vt 0.000000 0.000235
vt 0.504131 0.033489
vt 1.000000 0.000000
vn -0.966308 0.251503 -0.054140
vn -0.961974 0.230201 0.146947
vn -0.984497 0.027467 0.173132
vn -0.989532 0.133488 0.054353
vn -0.931120 0.262520 -0.253029
vn -0.969054 0.237312 -0.067843
vn -0.965392 -0.176427 0.191961
vn -0.987182 0.013764 0.158879
vn -0.971709 0.203467 0.119755
usemtl Leaves
s 1
f 16/10/10 13/11/11 17/12/12 18/13/13
f 10/14/14 16/10/10 18/13/13 15/15/15
f 18/13/13 17/12/12 12/16/16 14/17/17
f 15/15/15 18/13/13 14/17/17 11/18/18
o Plane_Plane.001
v 1.001207 -0.749489 -1.003135
v 1.001207 0.224256 0.996865
v -0.998794 -0.551725 0.996865
v -0.998793 -0.650261 -1.003135
v 0.001207 -0.169459 0.996865
v 1.001207 -0.169459 -0.003135
v 0.001207 -0.169459 -1.003135
v -0.998793 -0.169459 -0.003135
v 0.001207 -0.169459 -0.003135
vt 0.509242 0.066076
vt 1.000000 0.020478
vt 0.952640 0.511070
vt 0.508444 0.510273
vt 0.000000 0.000000
vt 0.064248 0.509476
vt 0.982166 0.985697
vt 0.507647 0.954469
vt 0.031287 0.985721
vn 0.020997 0.966430 -0.256020
vn -0.227577 0.946776 -0.227577
vn -0.210608 0.977294 -0.022004
vn -0.075137 0.986908 -0.142644
vn 0.268319 0.925199 -0.268319
vn 0.040437 0.971038 -0.235450
vn -0.184484 0.965331 0.184484
vn -0.190435 0.981689 -0.002594
vn -0.189642 0.963347 -0.189642
usemtl Leaves
s 1
f 25/19/19 22/20/20 26/21/21 27/22/22
f 19/23/23 25/19/19 27/22/22 24/24/24
f 27/22/22 26/21/21 21/25/25 23/26/26
f 24/24/24 27/22/22 23/26/26 20/27/27
